{
    "asset" : {
        "generator" : "Khronos glTF Blender I/O v1.1.46",
        "version" : "2.0"
    },
    "scene" : 0,
    "scenes" : [
        {
            "name" : "Scene",
            "nodes" : [
                0,
                1,
                2,
                3,
                4
            ]
        }
    ],
    "nodes" : [
        {
            "mesh" : 0,
            "name" : "Plane",
            "rotation" : [
                0.7071067690849304,
                0,
                0,
                0.7071067690849304
            ],
            "scale" : [
                6.2118096351623535,
                3.293726682662964,
                11.870290756225586
            ]
        },
        {
            "mesh" : 1,
            "name" : "Plane.001",
            "rotation" : [
                0.7071067690849304,
                0,
                0,
                0.7071067690849304
            ],
            "scale" : [
                6.2118096351623535,
                3.293726682662964,
                11.870290756225586
            ]
        },
        {
            "mesh" : 2,
            "name" : "Cube",
            "scale" : [
                0.1180887222290039,
                -0.7741677165031433,
                0.28813815116882324
            ],
            "translation" : [
                6.2168097496032715,
                8.793643951416016,
                0.6510111093521118
            ]
        },
        {
            "mesh" : 3,
            "name" : "Cube.001",
            "scale" : [
                0.1180887222290039,
                -0.7741677165031433,
                0.28813815116882324
            ],
            "translation" : [
                6.2168097496032715,
                6.632516860961914,
                0.6510111093521118
            ]
        },
        {
            "mesh" : 4,
            "name" : "Cube.002",
            "scale" : [
                0.1180887222290039,
                -0.7741677165031433,
                0.28813815116882324
            ],
            "translation" : [
                6.2168097496032715,
                0.6168498992919922,
                0.6510111093521118
            ]
        }
    ],
    "materials" : [
        {
            "doubleSided" : true,
            "emissiveFactor" : [
                0,
                0,
                0
            ],
            "name" : "Material.002",
            "pbrMetallicRoughness" : {
                "baseColorFactor" : [
                    0,
                    0,
                    0,
                    1
                ],
                "metallicFactor" : 0,
                "roughnessFactor" : 0.5
            }
        },
        {
            "doubleSided" : true,
            "emissiveFactor" : [
                0,
                0,
                0
            ],
            "name" : "Material.001",
            "pbrMetallicRoughness" : {
                "baseColorTexture" : {
                    "index" : 0,
                    "texCoord" : 0
                },
                "metallicFactor" : 0,
                "roughnessFactor" : 0.5
            }
        },
        {
            "doubleSided" : true,
            "emissiveFactor" : [
                0,
                0,
                0
            ],
            "name" : "Material.005",
            "pbrMetallicRoughness" : {
                "baseColorFactor" : [
                    0,
                    0,
                    0,
                    1
                ],
                "metallicFactor" : 0,
                "roughnessFactor" : 0.5
            }
        },
        {
            "doubleSided" : true,
            "emissiveFactor" : [
                0,
                0,
                0
            ],
            "name" : "Material.004",
            "pbrMetallicRoughness" : {
                "baseColorFactor" : [
                    0,
                    0,
                    0,
                    1
                ],
                "metallicFactor" : 0,
                "roughnessFactor" : 0.5
            }
        },
        {
            "doubleSided" : true,
            "emissiveFactor" : [
                0,
                0,
                0
            ],
            "name" : "Material.003",
            "pbrMetallicRoughness" : {
                "baseColorFactor" : [
                    0,
                    0,
                    0,
                    1
                ],
                "metallicFactor" : 0,
                "roughnessFactor" : 0.5
            }
        }
    ],
    "meshes" : [
        {
            "name" : "Plane",
            "primitives" : [
                {
                    "attributes" : {
                        "POSITION" : 0,
                        "NORMAL" : 1,
                        "TEXCOORD_0" : 2
                    },
                    "indices" : 3,
                    "material" : 0
                }
            ]
        },
        {
            "name" : "Plane.001",
            "primitives" : [
                {
                    "attributes" : {
                        "POSITION" : 4,
                        "NORMAL" : 5,
                        "TEXCOORD_0" : 6
                    },
                    "indices" : 7,
                    "material" : 1
                }
            ]
        },
        {
            "name" : "Cube.001",
            "primitives" : [
                {
                    "attributes" : {
                        "POSITION" : 8,
                        "NORMAL" : 9,
                        "TEXCOORD_0" : 10
                    },
                    "indices" : 11,
                    "material" : 2
                }
            ]
        },
        {
            "name" : "Cube.002",
            "primitives" : [
                {
                    "attributes" : {
                        "POSITION" : 12,
                        "NORMAL" : 13,
                        "TEXCOORD_0" : 14
                    },
                    "indices" : 11,
                    "material" : 3
                }
            ]
        },
        {
            "name" : "Cube.003",
            "primitives" : [
                {
                    "attributes" : {
                        "POSITION" : 15,
                        "NORMAL" : 16,
                        "TEXCOORD_0" : 17
                    },
                    "indices" : 11,
                    "material" : 4
                }
            ]
        }
    ],
    "textures" : [
        {
            "source" : 0
        }
    ],
    "images" : [
        {
            "mimeType" : "image/jpeg",
            "name" : "5d2737ae04206d4ac4c91757e3846f9a",
            "uri" : "5d2737ae04206d4ac4c91757e3846f9a.jpg"
        }
    ],
    "accessors" : [
        {
            "bufferView" : 0,
            "componentType" : 5126,
            "count" : 492,
            "max" : [
                1,
                0.39527392387390137,
                1
            ],
            "min" : [
                -1,
                0,
                -1
            ],
            "type" : "VEC3"
        },
        {
            "bufferView" : 1,
            "componentType" : 5126,
            "count" : 492,
            "type" : "VEC3"
        },
        {
            "bufferView" : 2,
            "componentType" : 5126,
            "count" : 492,
            "type" : "VEC2"
        },
        {
            "bufferView" : 3,
            "componentType" : 5123,
            "count" : 1014,
            "type" : "SCALAR"
        },
        {
            "bufferView" : 4,
            "componentType" : 5126,
            "count" : 68,
            "max" : [
                0.9529345035552979,
                0.39527392387390137,
                0.9321901202201843
            ],
            "min" : [
                -0.9529345035552979,
                0.39527392387390137,
                -0.9736791253089905
            ],
            "type" : "VEC3"
        },
        {
            "bufferView" : 5,
            "componentType" : 5126,
            "count" : 68,
            "type" : "VEC3"
        },
        {
            "bufferView" : 6,
            "componentType" : 5126,
            "count" : 68,
            "type" : "VEC2"
        },
        {
            "bufferView" : 7,
            "componentType" : 5123,
            "count" : 198,
            "type" : "SCALAR"
        },
        {
            "bufferView" : 8,
            "componentType" : 5126,
            "count" : 24,
            "max" : [
                1,
                1,
                1
            ],
            "min" : [
                -1,
                -1,
                -1
            ],
            "type" : "VEC3"
        },
        {
            "bufferView" : 9,
            "componentType" : 5126,
            "count" : 24,
            "type" : "VEC3"
        },
        {
            "bufferView" : 10,
            "componentType" : 5126,
            "count" : 24,
            "type" : "VEC2"
        },
        {
            "bufferView" : 11,
            "componentType" : 5123,
            "count" : 36,
            "type" : "SCALAR"
        },
        {
            "bufferView" : 12,
            "componentType" : 5126,
            "count" : 24,
            "max" : [
                1,
                1,
                1
            ],
            "min" : [
                -1,
                -1,
                -1
            ],
            "type" : "VEC3"
        },
        {
            "bufferView" : 13,
            "componentType" : 5126,
            "count" : 24,
            "type" : "VEC3"
        },
        {
            "bufferView" : 14,
            "componentType" : 5126,
            "count" : 24,
            "type" : "VEC2"
        },
        {
            "bufferView" : 15,
            "componentType" : 5126,
            "count" : 24,
            "max" : [
                1,
                1,
                1
            ],
            "min" : [
                -1,
                -1,
                -1
            ],
            "type" : "VEC3"
        },
        {
            "bufferView" : 16,
            "componentType" : 5126,
            "count" : 24,
            "type" : "VEC3"
        },
        {
            "bufferView" : 17,
            "componentType" : 5126,
            "count" : 24,
            "type" : "VEC2"
        }
    ],
    "bufferViews" : [
        {
            "buffer" : 0,
            "byteLength" : 5904,
            "byteOffset" : 0
        },
        {
            "buffer" : 0,
            "byteLength" : 5904,
            "byteOffset" : 5904
        },
        {
            "buffer" : 0,
            "byteLength" : 3936,
            "byteOffset" : 11808
        },
        {
            "buffer" : 0,
            "byteLength" : 2028,
            "byteOffset" : 15744
        },
        {
            "buffer" : 0,
            "byteLength" : 816,
            "byteOffset" : 17772
        },
        {
            "buffer" : 0,
            "byteLength" : 816,
            "byteOffset" : 18588
        },
        {
            "buffer" : 0,
            "byteLength" : 544,
            "byteOffset" : 19404
        },
        {
            "buffer" : 0,
            "byteLength" : 396,
            "byteOffset" : 19948
        },
        {
            "buffer" : 0,
            "byteLength" : 288,
            "byteOffset" : 20344
        },
        {
            "buffer" : 0,
            "byteLength" : 288,
            "byteOffset" : 20632
        },
        {
            "buffer" : 0,
            "byteLength" : 192,
            "byteOffset" : 20920
        },
        {
            "buffer" : 0,
            "byteLength" : 72,
            "byteOffset" : 21112
        },
        {
            "buffer" : 0,
            "byteLength" : 288,
            "byteOffset" : 21184
        },
        {
            "buffer" : 0,
            "byteLength" : 288,
            "byteOffset" : 21472
        },
        {
            "buffer" : 0,
            "byteLength" : 192,
            "byteOffset" : 21760
        },
        {
            "buffer" : 0,
            "byteLength" : 288,
            "byteOffset" : 21952
        },
        {
            "buffer" : 0,
            "byteLength" : 288,
            "byteOffset" : 22240
        },
        {
            "buffer" : 0,
            "byteLength" : 192,
            "byteOffset" : 22528
        }
    ],
    "buffers" : [
        {
            "byteLength" : 22720,
            "uri" : "phone.bin"
        }
    ]
}
